HIERARCHY
ROOT Hips
{
	OFFSET -3.958830 18.904000 13.208200
	CHANNELS 6 Xposition Yposition Zposition Zrotation Yrotation Xrotation 
	JOINT LHipJoint
	{
		OFFSET 0.000000 0.000000 0.000000
		CHANNELS 3 Zrotation Yrotation Xrotation
		JOINT LeftUpLeg
		{
			OFFSET 1.800000 -1.400000 0.085000
			CHANNELS 3 Zrotation Yrotation Xrotation
			JOINT LeftLeg
			{
				OFFSET 2.215000 -6.000000 0.000000
				CHANNELS 3 Zrotation Yrotation Xrotation
				JOINT LeftFoot
				{
					OFFSET 2.500000 -6.900000 0.000000
					CHANNELS 3 Zrotation Yrotation Xrotation
					JOINT LeftToeBase
					{
						OFFSET 0.200000 -0.500000 1.950000
						CHANNELS 3 Zrotation Yrotation Xrotation
						End Site
						{
							OFFSET 0.000000 0.000000 0.000000
						}
					}
				}
			}
		}
	}
	JOINT RHipJoint
	{
		OFFSET 0.000000 0.000000 0.000000
		CHANNELS 3 Zrotation Yrotation Xrotation
		JOINT RightUpLeg
		{
			OFFSET -1.800000 -1.400000 0.085000
			CHANNELS 3 Zrotation Yrotation Xrotation
			JOINT RightLeg
			{
				OFFSET -2.215000 -6.000000 0.000000
				CHANNELS 3 Zrotation Yrotation Xrotation
				JOINT RightFoot
				{
					OFFSET -2.500000 -6.900000 0.000000
					CHANNELS 3 Zrotation Yrotation Xrotation
					JOINT RightToeBase
					{
						OFFSET -0.200000 -0.500000 1.950000
						CHANNELS 3 Zrotation Yrotation Xrotation
						End Site
						{
							OFFSET 0.000000 0.000000 0.000000
						}
					}
				}
			}
		}
	}
	JOINT LowerBack
	{
		OFFSET 0.000000 0.000000 0.000000
		CHANNELS 3 Zrotation Yrotation Xrotation
		JOINT Spine
		{
			OFFSET -0.087000 1.940000 -0.288900
			CHANNELS 3 Zrotation Yrotation Xrotation
			JOINT Spine1
			{
				OFFSET 0.000000 1.950000 0.060000
				CHANNELS 3 Zrotation Yrotation Xrotation
				JOINT Neck
				{
					OFFSET 0.000000 0.000000 0.000000
					CHANNELS 3 Zrotation Yrotation Xrotation
					JOINT Neck1
					{
						OFFSET 0.000000 1.600000 0.340000
						CHANNELS 3 Zrotation Yrotation Xrotation
						JOINT Head
						{
							OFFSET 0.000000 1.667000 -0.240000
							CHANNELS 3 Zrotation Yrotation Xrotation
							End Site
							{
								OFFSET 0.000000 0.000000 0.000000
							}
						}
					}
				}
				JOINT LeftShoulder
				{
					OFFSET 0.000000 0.000000 0.000000
					CHANNELS 3 Zrotation Yrotation Xrotation
					JOINT LeftArm
					{
						OFFSET 2.700000 1.550000 -0.730000
						CHANNELS 3 Zrotation Yrotation Xrotation
						JOINT LeftForeArm
						{
							OFFSET 5.450000 0.000000 0.000000
							CHANNELS 3 Zrotation Yrotation Xrotation
							JOINT LeftHand
							{
								OFFSET 3.450000 0.000000 0.000000
								CHANNELS 3 Zrotation Yrotation Xrotation
								JOINT LeftHandIndex1
								{
									OFFSET 0.750000 0.000000 0.000000
									CHANNELS 3 Zrotation Yrotation Xrotation
									End Site
									{
										OFFSET 0.000000 0.000000 0.000000
									}
								}
							}
						}
					}
				}
				JOINT RightShoulder
				{
					OFFSET 0.000000 0.000000 0.000000
					CHANNELS 3 Zrotation Yrotation Xrotation
					JOINT RightArm
					{
						OFFSET -2.700000 1.550000 -0.730000
						CHANNELS 3 Zrotation Yrotation Xrotation
						JOINT RightForeArm
						{
							OFFSET -5.450000 0.000000 0.000000
							CHANNELS 3 Zrotation Yrotation Xrotation
							JOINT RightHand
							{
								OFFSET -3.450000 0.000000 0.000000
								CHANNELS 3 Zrotation Yrotation Xrotation
								JOINT RightHandIndex1
								{
									OFFSET -0.750000 0.000000 0.000000
									CHANNELS 3 Zrotation Yrotation Xrotation
									End Site
									{
										OFFSET 0.000000 0.000000 0.000000
									}
								}
							}
						}
					}
				}
			}
		}
	}
}
MOTION
Frames: 4
Frame Time: 0.016667
-0.855260 16.438680 -1.047070 -2.039900 -0.292879 3.759712 -14.887783 10.752205 5.050714 2.311604 -10.082214 -36.455060 -19.428595 17.152166 43.805767 0.386455 9.978054 1.000059 0.367190 0.153050 0.340420 18.828897 -10.635635 2.808629 -0.036941 6.285472 -31.424900 -17.087685 0.899072 44.611831 -0.721795 -5.991111 2.166510 0.205260 0.187430 0.168650 -4.814324 1.200026 -8.550333 20.888832 -0.024502 18.037755 -5.825081 2.955641 10.081026 3.151318 2.779644 -9.844424 3.812447 -6.860156 35.940240 -5.285410 -3.508660 -14.340650 -10.226544 -13.244476 3.501378 -34.672721 -15.886282 -4.019136 14.040865 -46.161458 -6.687117 -3.647169 2.734749 0.547150 0.110800 -0.005360 0.029340 3.641616 13.037324 6.401770 54.271089 21.037800 -9.169149 -16.204637 60.428898 -12.685425 1.598021 -1.228006 -0.267500 0.322170 0.117700 -0.249920 
-0.851360 16.370820 -1.063860 -1.607295 -1.534392 3.608507 -14.930731 10.608134 5.188062 3.529054 -10.010514 -37.547752 -22.037491 18.926505 44.183107 0.550292 10.553918 0.811137 0.379860 0.160010 0.356980 18.816897 -10.447391 2.876292 -0.281923 6.983428 -32.274153 -17.843847 1.416327 46.345305 -0.790911 -6.301853 2.043887 0.206370 0.166150 0.184770 -4.731780 1.128701 -8.682012 20.241434 0.374943 18.743125 -5.036128 3.340564 9.747830 3.044989 2.609155 -9.773562 3.546337 -6.713757 35.925610 -5.685860 -3.283940 -13.786010 -11.187402 -13.398605 3.554313 -34.045455 -15.040196 -4.446636 13.767928 -47.291195 -6.718932 -3.637543 2.781729 0.533090 0.107900 -0.001670 0.022330 4.813005 13.688940 6.190351 52.820902 21.145721 -9.152006 -16.238526 58.719179 -12.109372 1.619606 -1.252494 -0.247120 0.285890 0.109570 -0.252730 
-0.834270 16.253890 -1.078940 -1.513967 -2.635477 2.636230 -14.974255 10.393264 5.459007 7.019941 -9.460528 -38.744088 -27.498000 22.446585 44.428427 0.881237 11.602221 0.499841 0.416540 0.207790 0.385830 18.811722 -10.197612 2.895452 -0.165376 7.765187 -32.250175 -18.643824 1.964496 48.879213 -0.920670 -6.745956 1.901369 0.217070 0.123620 0.177270 -4.664209 1.018594 -8.900228 20.876191 0.198676 20.299159 -4.594924 3.658806 9.362923 3.078903 2.258389 -9.945585 2.862278 -6.649442 36.612127 -5.893410 -3.264800 -13.682980 -13.599212 -14.994451 3.875122 -32.017992 -14.032424 -5.223712 13.109420 -48.252248 -6.579453 -3.584984 2.808093 0.527440 0.078450 0.025430 0.035430 7.084679 15.969269 6.315841 49.267652 20.595634 -9.920546 -17.121776 55.977238 -11.696751 1.650132 -1.263492 -0.217880 0.264920 0.066940 -0.246320 
-0.794580 16.142030 -1.083870 -1.305812 -2.885739 1.770369 -15.009658 10.078973 5.851338 11.276283 -8.833153 -40.139887 -34.626487 26.547917 43.896982 1.242817 12.662085 0.218103 0.445210 0.246850 0.395050 18.832480 -9.946337 2.822432 -0.653358 8.217954 -32.314508 -19.102989 2.094689 51.708501 -1.049742 -7.234850 1.751577 0.225330 0.106950 0.167360 -4.657929 0.964875 -9.124179 22.621144 -0.309361 21.649905 -4.985448 4.029705 8.660642 3.122527 1.693444 -9.856658 1.602279 -7.191293 36.857508 -5.187860 -4.374270 -14.041740 -17.010549 -16.257842 3.528865 -29.926332 -14.553898 -5.504689 11.543616 -48.781100 -5.984859 -3.559769 2.812347 0.523000 0.051110 0.042110 0.050480 10.216996 17.784322 6.807382 46.307582 17.957508 -11.641549 -18.131407 54.524782 -11.666748 1.665119 -1.268116 -0.193870 0.269270 0.041130 -0.228170 
